<?xml version="1.0" standalone="no"?><!DOCTYPE svg PUBLIC "-//W3C//DTD SVG 1.1//EN" "http://www.w3.org/Graphics/SVG/1.1/DTD/svg11.dtd"><svg height="446" node-id="1" sillyvg="true" template-height="446" template-width="359" version="1.1" viewBox="0 0 359 446" width="359" xmlns="http://www.w3.org/2000/svg" xmlns:xlink="http://www.w3.org/1999/xlink"><defs node-id="15"></defs><g node-id="17"><g node-id="18"><g node-id="19"><path d="M 169.50 191.20 L 162.90 220.20 L 158.70 240.20 L 156.40 253.10 L 155.30 261.00 L 155.00 265.30 L 140.30 263.70 L 128.70 262.90 L 119.60 262.70 L 112.60 262.90 L 107.50 263.50 L 103.70 264.30 L 101.10 265.30 L 114.40 268.50 L 124.90 271.40 L 132.90 274.10 L 139.00 276.60 L 143.30 278.80 L 146.40 280.80 L 148.40 282.60 L 149.60 284.20 L 153.50 291.60 L 159.10 303.50 L 165.40 318.40 L 168.40 326.50 L 173.60 343.30 L 176.30 356.90 L 177.10 366.60 L 176.80 377.40 L 176.00 389.10 L 174.50 401.90 L 172.40 415.90 L 169.50 431.10 L 211.70 445.50 L 213.20 435.40 L 214.20 425.10 L 214.60 414.60 L 214.50 403.80 L 213.70 392.60 L 212.40 381.20 L 210.40 369.40 L 207.80 357.20 L 204.50 344.70 L 200.50 331.70 L 195.80 318.30 L 187.00 296.20 L 181.60 281.60 L 178.70 272.70 L 177.40 267.80 L 177.10 265.30 L 195.80 199.50 L 169.50 191.20 Z" fill="#cb8f70" fill-rule="evenodd" group-id="1,2,3" id="路径-426" node-id="10" stroke="none" target-height="254.3" target-width="113.50001" target-x="101.1" target-y="191.2"></path><path d="M 15.00 79.60 L 16.20 95.90 L 18.90 113.20 L 21.10 123.10 L 24.20 134.00 L 26.60 141.30 L 32.90 156.40 L 36.70 163.70 L 41.00 171.00 L 45.90 178.20 L 49.90 183.30 L 54.30 188.20 L 59.00 193.00 L 64.10 197.50 L 69.50 201.70 L 75.20 205.60 L 81.50 209.10 L 88.30 212.40 L 95.10 215.10 L 102.60 217.40 L 110.60 219.30 L 119.30 220.80 L 127.90 221.60 L 137.10 222.00 L 147.20 221.70 L 158.10 220.70 L 159.10 212.10 L 159.80 196.30 L 158.90 182.50 L 157.60 173.90 L 155.80 166.00 L 153.60 158.60 L 150.90 151.90 L 147.70 145.20 L 144.10 139.00 L 140.20 133.30 L 136.00 128.00 L 131.40 123.00 L 126.60 118.30 L 121.60 114.00 L 116.40 110.10 L 109.10 105.30 L 101.70 101.00 L 94.10 97.20 L 86.30 93.90 L 71.20 88.60 L 59.90 85.60 L 49.70 83.40 L 31.80 80.70 L 15.00 79.60 Z" fill="#92ce5a" fill-rule="evenodd" group-id="1,2,3" id="路径-425" node-id="11" stroke="none" target-height="142.4" target-width="144.8" target-x="15" target-y="79.6"></path><g node-id="20"><path d="M 0.10 314.20 L 8.40 314.60 L 15.00 314.50 L 22.30 314.00 L 31.40 313.00 L 44.40 310.50 L 51.80 308.60 L 59.10 306.30 L 66.70 303.50 L 74.70 300.10 L 82.40 296.20 L 90.40 291.60 L 98.50 286.10 L 110.10 276.90 L 121.80 265.50 L 114.60 257.40 L 107.10 251.00 L 101.60 247.40 L 96.10 244.40 L 90.50 242.00 L 84.80 240.00 L 79.10 238.50 L 73.60 237.50 L 67.90 236.80 L 57.30 236.70 L 47.40 237.70 L 43.10 238.60 L 35.10 241.10 L 32.00 242.50 L 27.60 245.10 L 23.50 248.20 L 19.90 251.70 L 16.70 255.50 L 13.90 259.60 L 9.20 268.50 L 5.70 277.70 L 3.80 284.60 L 2.40 291.20 L 0.70 302.90 L 0.10 314.20 Z" fill="#92ce5a" fill-rule="evenodd" group-id="1,2,3,4" id="路径-425" node-id="12" stroke="none" target-height="77.90001" target-width="121.700005" target-x="0.1" target-y="236.7"></path></g><path d="M 357.90 0.90 L 338.30 6.10 L 317.10 13.20 L 304.90 17.90 L 291.30 23.90 L 272.90 33.10 L 263.20 38.50 L 253.70 44.30 L 244.30 50.70 L 234.80 57.60 L 221.40 68.90 L 208.60 81.60 L 202.60 88.40 L 197.00 95.50 L 191.60 103.00 L 186.60 110.80 L 182.10 118.90 L 178.00 127.50 L 174.40 136.40 L 171.20 145.80 L 169.10 153.40 L 167.40 161.20 L 166.00 169.40 L 165.00 178.00 L 164.50 186.90 L 164.40 195.60 L 164.70 204.70 L 165.50 214.20 L 166.90 224.20 L 168.80 234.60 L 179.60 234.90 L 189.80 234.90 L 199.50 234.40 L 208.60 233.60 L 217.20 232.40 L 226.00 230.80 L 234.30 228.90 L 242.20 226.60 L 249.60 224.10 L 256.60 221.30 L 265.40 217.30 L 273.50 212.80 L 281.00 208.10 L 288.10 203.00 L 294.80 197.40 L 301.10 191.60 L 306.90 185.50 L 312.40 179.20 L 317.40 172.50 L 322.10 165.70 L 326.40 158.80 L 330.40 151.60 L 335.20 141.90 L 339.40 132.00 L 343.10 122.10 L 346.30 112.00 L 349.10 102.10 L 351.40 92.40 L 354.90 73.10 L 357.50 50.80 L 358.60 28.00 L 358.70 19.00 L 357.90 0.90 Z" fill="#92ce5a" fill-rule="evenodd" group-id="1,2,3,5" id="路径-425" node-id="13" stroke="none" target-height="234" target-width="194.30002" target-x="164.4" target-y="0.9"></path></g></g></g></svg>